# xmcd CD database file
#
# Track frame offsets:
#	200
#	18275
#	46297
#
# Disc length: 944 seconds
#
# Revision: 2
# Processed by: cddbd v1.4b41PL1 Copyright (c) Steve Scherf et al.
# Submitted via: Feurio! 1.58ß - http://www.feurio.com
#
DISCID=1903ae03,1f03ae03
DTITLE=Cousteau - Unbekannte CD #1903AE032B34412B
DYEAR=1900
DGENRE=
TTITLE0=The last good day of the year
TTITLE1=Captain Swing
TTITLE2=Rachael Lately
EXTD=
EXTT0=
EXTT1=
EXTT2=
PLAYORDER=
